:SAMPLES-PER-SECOND 30
:FULLY-SPECIFIED
:DEGREES
124
root  -49.1756 39.3497 -6.56651 -85.351 -82.6688 77.8741
RightUpLeg  -16.4871 -8.90927 -9.32305
RightLeg  -4.61882 -5.80034 4.01884
RightFoot  -0.540497 -0.740215 7.79557
RightToes  4.07452e-010 0 -3.6325e-017
Spine  3.77083 -2.61947 -9.71845
Spine1  11.672 -3.81271 2.48712
HEad  -17.4155 4.00164 -1.66522
LeftShoulder1  8.11243 -11.4157 -47.4459
LeftArm  -12.7051 -3.68789 -22.9511
LeftForeArm  30.9159 -44.4476 -8.8441
LeftHand  -0.244104 0.0205437 5.32207
RightShoulder  5.24494 8.22317 38.6533
RightArm  -7.80918 -25.4375 29.8081
RightForeArm  11.6147 6.96682 6.17711
RightHand  -0.770034 1.27609 -13.5222
LeftUpLeg  14.3444 6.41387 -6.48939
LeftLeg  14.1283 10.4804 -3.11184
LeftFoot  -20.3248 0.135508 0.163141
LeftToes  1.0186e-010 1.09309e-010 2.97394e-011
125
root  -50.6005 39.1901 -6.68633 -76.3955 -82.7524 69.5091
RightUpLeg  -16.4447 -9.12736 -8.71859
RightLeg  -3.65828 -8.80881 4.39448
RightFoot  3.18821 -0.567718 4.74331
RightToes  4.07452e-010 0 -3.6325e-017
Spine  2.56558 -3.06266 -8.88898
Spine1  11.9669 -4.42688 3.25725
HEad  -16.6923 4.01479 -2.2875
LeftShoulder1  8.14157 -11.3699 -47.7681
LeftArm  -12.9504 -2.07838 -22.5864
LeftForeArm  31.6733 -45.5885 -9.19329
LeftHand  -0.244104 0.0205437 5.32207
RightShoulder  5.20593 8.26071 38.1983
RightArm  -8.3693 -27.8727 30.3784
RightForeArm  11.837 7.46505 6.01948
RightHand  -0.656593 0.5518 -12.8933
LeftUpLeg  16.0455 8.49133 -5.08288
LeftLeg  14.4334 7.0759 -2.46946
LeftFoot  -21.0468 0.0728918 -0.632803
LeftToes  1.0186e-010 1.09309e-010 2.97394e-011
126
root  -52.0749 39.1161 -6.76494 -69.9631 -83.8655 63.3799
RightUpLeg  -17.6025 -9.11187 -7.3613
RightLeg  0.865931 -10.2128 4.10489
RightFoot  9.17186 -0.162582 1.22872
RightToes  4.07452e-010 0 -3.6325e-017
Spine  2.09359 -3.45264 -5.69415
Spine1  11.1879 -4.55316 2.46163
HEad  -15.593 4.30243 -2.71495
LeftShoulder1  8.12763 -11.2434 -48.0981
LeftArm  -12.4953 0.459132 -22.3619
LeftForeArm  32.1387 -45.5231 -9.13895
LeftHand  -0.244104 0.0205437 5.32207
RightShoulder  5.25672 8.34837 38.295
RightArm  -8.33129 -30.0404 30.5086
RightForeArm  11.6778 8.59273 6.0537
RightHand  -0.510888 -0.397052 -11.8867
LeftUpLeg  17.7421 11.0233 -2.71914
LeftLeg  15.4412 4.13323 -1.09302
LeftFoot  -21.0577 -0.0341923 -1.86057
LeftToes  1.0186e-010 1.09309e-010 2.97394e-011
127
root  -53.5728 39.1036 -6.80565 -73.3324 -86.1446 66.5779
RightUpLeg  -18.6035 -9.72909 -4.92585
RightLeg  6.03775 -8.4088 3.6439
RightFoot  13.2716 0.264379 -0.819158
RightToes  4.07452e-010 0 -3.6325e-017
Spine  2.1098 -3.45229 -0.224071
Spine1  10.2079 -3.76454 -0.180174
HEad  -14.9178 4.64921 -3.15209
LeftShoulder1  8.18093 -11.2122 -48.5184
LeftArm  -11.5947 3.33931 -22.3918
LeftForeArm  32.5969 -44.1348 -8.62552
LeftHand  -0.244104 0.0205437 5.32207
RightShoulder  5.34296 8.41794 38.7409
RightArm  -8.40755 -31.0069 30.6755
RightForeArm  11.5643 9.63837 6.00738
RightHand  -0.440601 -0.755514 -11.0223
LeftUpLeg  19.128 13.4575 0.435286
LeftLeg  18.0623 2.19307 0.404524
LeftFoot  -20.4082 -0.269446 -4.98284
LeftToes  1.0186e-010 1.09309e-010 2.97394e-011
128
root  -54.9941 39.2107 -6.8967 -109.675 -88.364 102.949
RightUpLeg  -18.8061 -11.6769 -1.59423
RightLeg  9.74468 -4.4857 3.20928
RightFoot  13.1666 0.566116 -2.20215
RightToes  4.07452e-010 0 -3.6325e-017
Spine  1.77414 -3.09878 4.68335
Spine1  9.96021 -2.83508 -2.00888
HEad  -14.5752 5.04799 -3.95838
LeftShoulder1  8.34718 -11.3617 -49.0106
LeftArm  -10.4942 6.62152 -23.0363
LeftForeArm  32.5849 -41.4856 -7.76837
LeftHand  -0.244104 0.0205437 5.32207
RightShoulder  5.36921 8.49617 38.6714
RightArm  -8.87741 -30.5582 31.4674
RightForeArm  11.5483 10.3615 5.89097
RightHand  -0.455013 -0.486811 -10.7736
LeftUpLeg  18.7073 14.5624 3.42685
LeftLeg  22.9212 2.10073 1.40542
LeftFoot  -17.0264 -0.350952 -9.46465
LeftToes  1.0186e-010 1.09309e-010 2.97394e-011
